<?xml version="1.0" encoding="utf-8"?>
<!-- Generator: Adobe Illustrator 22.0.1, SVG Export Plug-In . SVG Version: 6.00 Build 0)  -->
<svg version="1.1" id="Layer_1" xmlns="http://www.w3.org/2000/svg" xmlns:xlink="http://www.w3.org/1999/xlink" x="0px" y="0px"
	 viewBox="0 0 182.5 55.2" style="enable-background:new 0 0 182.5 55.2;" xml:space="preserve">
<style type="text/css">
	.st0{enable-background:new    ;}
	.st1{fill:#231F20;}
</style>
<title>hostileWaters</title>
<g class="st0">
	<path class="st1" d="M39.5,5.1h8.1l-0.2,0.7h-2.6L42.5,14h8.7l2.3-8.2h-2.7L51,5.1h8l-0.2,0.7h-2.4c-2.1,7-2.7,9-5,17.2h2.5
		l-0.2,0.7h-8.1l0.2-0.7h2.7l2.4-8.4h-8.6L39.9,23h2.7l-0.2,0.7h-7.9l0.2-0.7H37c2.2-7.6,2.7-9.2,4.9-17.2h-2.6L39.5,5.1z"/>
</g>
<g class="st0">
	<path class="st1" d="M74.8,11.2c0,6.1-5.2,12.8-11.3,12.8c-3.1,0-6.4-2.1-6.4-6.5c0-2.8,1.4-6.7,3.8-9.3c2.6-2.8,5.4-3.6,7-3.7
		C70.7,4.4,74.8,5.9,74.8,11.2z M62.9,9.5c-1.1,2.1-2.8,7.2-2.8,9.7c0,3.6,2.9,4,3.9,4c1.9,0,3.6-1,5.2-3.9c1.7-3,2.9-7.9,2.9-10
		c0-3.4-2.4-4.3-4.1-4.2C66,5.3,64.4,6.5,62.9,9.5z"/>
</g>
<g class="st0">
	<path class="st1" d="M89.2,10.7l-0.8,0.1c0-0.4,0.1-1.1,0-1.8c-0.5-3.2-2.8-3.5-4.2-3.5c-1.9,0-3.3,1.5-3.3,3.2
		c0,1.5,0.9,2.2,1.7,2.6c1,0.6,2,1.1,3,1.7c1.1,0.7,3,1.9,3,4.9c0,3.4-2.6,6.3-6.8,6.3c-2.2,0-4.4-0.8-6.5-2.2
		c0.3-0.7,0.7-2.5,0.7-2.5s0.4-1.8,0.5-2.5h0.8c-0.1,0.7-0.2,1.6,0,2.6c0.6,3.7,3.9,3.9,4.8,3.9c2.8,0,4.6-1.6,4.6-3.8
		c0-1.5-0.8-2.5-2.4-3.5c-0.9-0.5-1.7-0.9-2.6-1.5C80.9,14,79,12.8,79,10.1s2-5.4,5.7-5.4c2.2,0,3.7,0.8,5.2,1.6
		c-0.2,0.7-0.4,2.1-0.4,2.1S89.2,9.8,89.2,10.7z"/>
	<path class="st1" d="M108.7,10.7l-0.8,0.1c0.2-0.8,0.3-1.4,0.3-1.8c-0.1-3.2-2.2-3.2-4.9-3.2c-2.1,7.1-2.7,9.2-4.9,17.2h2.9
		l-0.2,0.7h-8.4l0.2-0.7h2.6c2.3-7.8,2.8-9.6,4.9-17.2c-0.3,0-0.6,0-0.9,0c-2.3,0-4.8,0.4-6.3,4.7l-0.8-0.1c0.3-0.7,0.9-2.6,0.9-2.6
		s0.6-1.9,0.8-2.7H110c-0.3,1.1-0.7,2.8-0.7,2.8S108.8,9.7,108.7,10.7z"/>
	<path class="st1" d="M111.4,5.1h7.8L119,5.8h-2.3c-2.2,7.7-2.8,9.6-4.9,17.2h2.4l-0.2,0.7h-7.8l0.2-0.7h2.3
		c2.3-7.5,2.8-9.4,4.9-17.2h-2.5L111.4,5.1z"/>
	<path class="st1" d="M131.3,23.7h-15.6l0.2-0.6h2.4l0.7-2.5l3.4-12.3l0.7-2.6h-2.7l0.2-0.6h8l-0.2,0.6H126l-0.7,2.6l-3.4,12.3
		l-0.6,2.3h4.3c1.2,0,2.6-0.1,3.9-1.2c1.6-1.3,2.5-3.4,2.8-4.4l0.7,0.1c-0.5,1.3-1,3.2-1,3.2S131.5,22.4,131.3,23.7z"/>
	<path class="st1" d="M133.1,23.7l0.2-0.6h2.4l0.6-2.2l3.7-13l0.6-2.2H138l0.2-0.6h14.1C152,6.3,151.7,8,151.7,8s-0.2,1.6-0.3,2.6
		l-0.8,0.1c0.2-1.1,0.3-2.6-0.5-3.7s-2-1.1-3.5-1.1h-3.2L142.8,8l-1.4,5.2h2c1.6,0,3.2-0.3,3.8-2.9l0.2-0.8h0.8
		c-0.8,2.3-1.5,4.9-1.5,4.9s-0.7,2.6-1.1,4.2h-0.8l0.4-1.4c0.6-2.3-0.4-3.2-2.1-3.2h-1.9l-2,7l-0.6,2.1h5c1.2,0,1.9,0,3.6-1.1
		c1.4-1,2.5-2.7,3.1-4.2l0.8,0.1c-0.6,1.6-1.1,3.1-1.1,3.1s-0.4,1.4-0.8,2.8h-16.1V23.7z"/>
</g>
<g class="st0">
	<path class="st1" d="M49.5,29.9l-0.2,0.6h-2.7v2.2l0.1,10.9L53,32.7l1.2-2.2h-2.5l0.2-0.6h8.3L60,30.5h-2.6l-0.1,2.2L57,43.6
		l6.9-10.9l1.2-2.2h-2.5l0.2-0.6h5.5l-0.2,0.6H66l-1.5,2.3l-10,15.9h-0.6l0.3-16.8l-9.9,16.8h-0.6l-0.3-15.9l-0.1-2.4h-2l0.2-0.6h8
		V29.9z"/>
	<path class="st1" d="M74.6,29.6l0.8,15.9l0.2,2.4H78l-0.2,0.6h-8.4l0.2-0.6h2.7v-2.2L72.1,42h-4.8l-2.2,3.7l-1.3,2.2h2.8l-0.2,0.6
		h-5.9l0.2-0.6h2.2l1.5-2.3l9.8-15.9h0.4V29.6z M67.8,41.2h4.3l-0.2-6.7L67.8,41.2z"/>
</g>
<g class="st0">
	<path class="st1" d="M94.2,35.5l-0.8,0.1c0.2-0.8,0.3-1.4,0.3-1.8c-0.1-3.2-2.2-3.2-4.9-3.2c-2.1,7.1-2.7,9.2-4.9,17.2h2.9
		l-0.2,0.7h-8.4l0.2-0.7H81c2.3-7.8,2.8-9.6,4.9-17.2c-0.3,0-0.6,0-0.9,0c-2.3,0-4.8,0.4-6.3,4.7l-0.8-0.1c0.3-0.7,0.9-2.6,0.9-2.6
		s0.6-1.9,0.8-2.7h15.9c-0.3,1.1-0.7,2.8-0.7,2.8S94.4,34.5,94.2,35.5z"/>
	<path class="st1" d="M91.9,48.5l0.2-0.6h2.4l0.6-2.2l3.6-12.9l0.6-2.2h-2.6l0.2-0.6H111c-0.3,1.2-0.6,2.9-0.6,2.9s-0.2,1.6-0.3,2.6
		l-0.8,0.1c0.2-1.1,0.3-2.6-0.5-3.7c-0.8-1.1-2-1.1-3.5-1.1h-3.2l-0.6,2.1l-1.4,5.2h2c1.6,0,3.2-0.3,3.8-2.9l0.2-0.8h0.8
		c-0.8,2.3-1.5,4.9-1.5,4.9s-0.7,2.6-1.1,4.2h-0.8l0.4-1.4c0.6-2.3-0.4-3.2-2.1-3.2H100l-2,7L97.4,48h5c1.2,0,1.9,0,3.6-1.1
		c1.4-1,2.5-2.7,3.1-4.2l0.8,0.1c-0.6,1.6-1.1,3.1-1.1,3.1s-0.4,1.4-0.8,2.8H91.9V48.5z"/>
	<path class="st1" d="M115,29.9h8.8c0.9,0,1.8,0.1,2.7,0.5c0.7,0.3,1.6,1.2,1.6,2.5c0,1-0.4,2-1,2.8c-1.4,1.7-3.7,2.2-4.8,2.5
		c1.4,0.3,4,0.9,4,3.7c0,0.8-0.2,2.2-0.3,2.8c-0.1,0.4-0.1,0.9-0.1,1.4c0,0.6,0.1,1,0.4,1.2c0.4,0.4,0.9,0.4,2.3,0.4l-0.2,0.7
		c-0.7,0-1.3,0.1-1.9,0.1c-1.2,0-3.5,0-3.5-2.3c0-0.5,0.1-1.1,0.2-1.7c0.2-1.1,0.4-2.6,0.4-3.5c0-2.5-1.8-2.5-5.4-2.5
		c-1.1,3.7-1.4,4.7-2.5,9.2h2.6l-0.2,0.7H110l0.2-0.7h2.3c2.5-8.6,3.1-10.7,5-17.2h-2.7L115,29.9z M120.4,30.6
		c-0.9,3-1.2,3.8-2.1,7.4h1.7c1.3,0,2.9-0.1,4.1-1.8c0.6-0.9,1-2,1-3.3c0-2.2-1.6-2.3-2.4-2.3C122.7,30.6,120.4,30.6,120.4,30.6z"/>
	<path class="st1" d="M144.3,35.4l-0.8,0.1c0-0.4,0.1-1.1,0-1.8c-0.5-3.2-2.8-3.5-4.2-3.5c-1.9,0-3.3,1.5-3.3,3.2
		c0,1.5,0.9,2.2,1.7,2.6c1,0.6,2,1.1,3,1.7c1.1,0.7,3,1.9,3,4.9c0,3.4-2.6,6.3-6.8,6.3c-2.2,0-4.4-0.8-6.5-2.2
		c0.3-0.7,0.7-2.5,0.7-2.5s0.4-1.8,0.5-2.5h0.8c-0.1,0.7-0.2,1.6,0,2.6c0.6,3.7,3.9,3.9,4.8,3.9c2.8,0,4.6-1.6,4.6-3.8
		c0-1.5-0.8-2.5-2.4-3.5c-0.9-0.5-1.7-0.9-2.5-1.5c-0.7-0.4-2.6-1.7-2.6-4.4s2-5.4,5.7-5.4c2.2,0,3.7,0.8,5.2,1.6
		c-0.2,0.7-0.4,2.1-0.4,2.1S144.4,34.6,144.3,35.4z"/>
</g>
</svg>
